<?xml version="1.0" encoding="UTF-8"?>
<svg id="_レイヤー_2" xmlns="http://www.w3.org/2000/svg" version="1.1" viewBox="0 0 21 15">
  <!-- Generator: Adobe Illustrator 30.0.0, SVG Export Plug-In . SVG Version: 2.1.1 Build 123)  -->
  <defs>
    <style>
      .st0 {
        fill: #fff;
      }
    </style>
  </defs>
  <path class="st0" d="M20,0H1C.4,0,0,.4,0,1v13c0,.6.4,1,1,1h19c.6,0,1-.4,1-1V1c0-.6-.4-1-1-1ZM19.9,13.7c0,.1-.2.2-.4.2s-.2,0-.3-.1l-6.4-5.6-1.9,1.7c-.2.2-.5.2-.7,0l-1.9-1.7L1.8,13.8c-.2.2-.5.2-.7,0-.2-.2-.2-.5,0-.7l6.3-5.6L1.2,1.9c-.2-.2-.2-.5,0-.7.2-.2.5-.2.7,0l6.7,5.9h0l1.9,1.7,1.9-1.7h0l6.7-5.9c.2-.2.5-.2.7,0s.2.5,0,.7l-6.3,5.6,6.3,5.6c.2.2.2.5,0,.7h.1Z"/>
</svg>