<?xml version="1.0" encoding="utf-8"?>
<!-- Generator: Adobe Illustrator 26.0.3, SVG Export Plug-In . SVG Version: 6.00 Build 0)  -->
<svg version="1.1" id="レイヤー_1" xmlns="http://www.w3.org/2000/svg" xmlns:xlink="http://www.w3.org/1999/xlink" x="0px"
	 y="0px" width="300px" height="300px" viewBox="0 0 300 300" style="enable-background:new 0 0 300 300;" xml:space="preserve">
<style type="text/css">
	.st0{fill:none;stroke:#333333;stroke-width:8;stroke-linejoin:round;stroke-miterlimit:10;}
	.st1{fill:#333333;stroke:#333333;stroke-width:8;stroke-linecap:round;stroke-linejoin:round;stroke-miterlimit:10;}
	.st2{fill:#FFFFFF;}
</style>
<g>
	<polyline class="st0" points="204.5,109 204.5,210 111.5,210 111.5,90 186,90 	"/>
	<rect x="95.5" y="132" class="st1" width="83" height="36"/>
	<g>
		<path class="st2" d="M106.17,137.42h8.26c5.58,0,9.86,1.94,9.86,7.89c0,5.75-4.32,8.33-9.72,8.33h-3.37v8.94h-5.03V137.42z
			 M114.23,149.66c3.47,0,5.13-1.46,5.13-4.35c0-2.92-1.84-3.91-5.3-3.91h-2.86v8.26H114.23z"/>
		<path class="st2" d="M128.28,137.42h6.9c7.68,0,12.44,3.98,12.44,12.48c0,8.46-4.76,12.68-12.17,12.68h-7.17V137.42z
			 M134.88,158.53c4.69,0,7.62-2.52,7.62-8.63c0-6.15-2.92-8.46-7.62-8.46h-1.56v17.1H134.88z"/>
		<path class="st2" d="M152.33,137.42h15.5v4.18h-10.47v6.56h8.94v4.22h-8.94v10.2h-5.03V137.42z"/>
	</g>
	<polygon class="st1" points="204.5,109 185.5,109 185.5,90 	"/>
</g>
</svg>
